<mxfile host="app.diagrams.net">
  <diagram name="SIMULATION_TABLE CSV Format" id="simulation_table_csv">
    <mxGraphModel dx="800" dy="480" grid="1" gridSize="10" guides="1" tooltips="1" connect="0" arrows="0" fold="0" page="0" math="0" shadow="0">
      <root>
        <mxCell id="0"/>
        <mxCell id="1" parent="0"/>

        <!-- Table container -->
        <mxCell id="2" value="" style="rounded=0;whiteSpace=wrap;html=1;strokeColor=#000000;strokeWidth=1;fillColor=#ffffff;" vertex="1" parent="1">
          <mxGeometry x="50" y="50" width="700" height="240" as="geometry"/>
        </mxCell>

        <!-- Header row -->
        <mxCell id="3" value="block" style="rounded=0;whiteSpace=wrap;html=1;strokeColor=#000000;strokeWidth=1;fillColor=#dae8fc;fontStyle=1;align=center;verticalAlign=middle;" vertex="1" parent="2">
          <mxGeometry x="0" y="0" width="100" height="30" as="geometry"/>
        </mxCell>
        <mxCell id="4" value="component" style="rounded=0;whiteSpace=wrap;html=1;strokeColor=#000000;strokeWidth=1;fillColor=#dae8fc;fontStyle=1;align=center;verticalAlign=middle;" vertex="1" parent="2">
          <mxGeometry x="100" y="0" width="120" height="30" as="geometry"/>
        </mxCell>
        <mxCell id="5" value="output" style="rounded=0;whiteSpace=wrap;html=1;strokeColor=#000000;strokeWidth=1;fillColor=#dae8fc;fontStyle=1;align=center;verticalAlign=middle;" vertex="1" parent="2">
          <mxGeometry x="220" y="0" width="120" height="30" as="geometry"/>
        </mxCell>
        <mxCell id="6" value="absolute_time_index" style="rounded=0;whiteSpace=wrap;html=1;strokeColor=#000000;strokeWidth=1;fillColor=#dae8fc;fontStyle=1;align=center;verticalAlign=middle;fontSize=10;" vertex="1" parent="2">
          <mxGeometry x="340" y="0" width="120" height="30" as="geometry"/>
        </mxCell>
        <mxCell id="7" value="block_time_index" style="rounded=0;whiteSpace=wrap;html=1;strokeColor=#000000;strokeWidth=1;fillColor=#dae8fc;fontStyle=1;align=center;verticalAlign=middle;fontSize=10;" vertex="1" parent="2">
          <mxGeometry x="460" y="0" width="120" height="30" as="geometry"/>
        </mxCell>
        <mxCell id="8" value="scenario_index" style="rounded=0;whiteSpace=wrap;html=1;strokeColor=#000000;strokeWidth=1;fillColor=#dae8fc;fontStyle=1;align=center;verticalAlign=middle;" vertex="1" parent="2">
          <mxGeometry x="580" y="0" width="60" height="30" as="geometry"/>
        </mxCell>
        <mxCell id="9" value="value" style="rounded=0;whiteSpace=wrap;html=1;strokeColor=#000000;strokeWidth=1;fillColor=#dae8fc;fontStyle=1;align=center;verticalAlign=middle;" vertex="1" parent="2">
          <mxGeometry x="640" y="0" width="60" height="30" as="geometry"/>
        </mxCell>

        <!-- Empty data row -->
        <mxCell id="10" value="" style="rounded=0;whiteSpace=wrap;html=1;strokeColor=#000000;strokeWidth=1;fillColor=#ffffff;" vertex="1" parent="2">
          <mxGeometry x="0" y="30" width="100" height="30" as="geometry"/>
        </mxCell>
        <mxCell id="11" value="" style="rounded=0;whiteSpace=wrap;html=1;strokeColor=#000000;strokeWidth=1;fillColor=#ffffff;" vertex="1" parent="2">
          <mxGeometry x="100" y="30" width="120" height="30" as="geometry"/>
        </mxCell>
        <mxCell id="12" value="" style="rounded=0;whiteSpace=wrap;html=1;strokeColor=#000000;strokeWidth=1;fillColor=#ffffff;" vertex="1" parent="2">
          <mxGeometry x="220" y="30" width="120" height="30" as="geometry"/>
        </mxCell>
        <mxCell id="13" value="" style="rounded=0;whiteSpace=wrap;html=1;strokeColor=#000000;strokeWidth=1;fillColor=#ffffff;" vertex="1" parent="2">
          <mxGeometry x="340" y="30" width="120" height="30" as="geometry"/>
        </mxCell>
        <mxCell id="14" value="" style="rounded=0;whiteSpace=wrap;html=1;strokeColor=#000000;strokeWidth=1;fillColor=#ffffff;" vertex="1" parent="2">
          <mxGeometry x="460" y="30" width="120" height="30" as="geometry"/>
        </mxCell>
        <mxCell id="15" value="" style="rounded=0;whiteSpace=wrap;html=1;strokeColor=#000000;strokeWidth=1;fillColor=#ffffff;" vertex="1" parent="2">
          <mxGeometry x="580" y="30" width="60" height="30" as="geometry"/>
        </mxCell>
        <mxCell id="16" value="" style="rounded=0;whiteSpace=wrap;html=1;strokeColor=#000000;strokeWidth=1;fillColor=#ffffff;" vertex="1" parent="2">
          <mxGeometry x="640" y="30" width="60" height="30" as="geometry"/>
        </mxCell>

        <!-- Objective row example -->
        <mxCell id="17" value="1" style="rounded=0;whiteSpace=wrap;html=1;strokeColor=#000000;strokeWidth=1;fillColor=#eef2f7;align=center;verticalAlign=middle;" vertex="1" parent="2">
          <mxGeometry x="0" y="190" width="100" height="30" as="geometry"/>
        </mxCell>
        <mxCell id="18" value="None" style="rounded=0;whiteSpace=wrap;html=1;strokeColor=#000000;strokeWidth=1;fillColor=#eef2f7;align=center;verticalAlign=middle;" vertex="1" parent="2">
          <mxGeometry x="100" y="190" width="120" height="30" as="geometry"/>
        </mxCell>
        <mxCell id="19" value="OBJECTIVE_VALUE" style="rounded=0;whiteSpace=wrap;html=1;strokeColor=#000000;strokeWidth=1;fillColor=#eef2f7;align=center;verticalAlign=middle;" vertex="1" parent="2">
          <mxGeometry x="220" y="190" width="120" height="30" as="geometry"/>
        </mxCell>
        <mxCell id="20" value="None" style="rounded=0;whiteSpace=wrap;html=1;strokeColor=#000000;strokeWidth=1;fillColor=#eef2f7;align=center;verticalAlign=middle;" vertex="1" parent="2">
          <mxGeometry x="340" y="190" width="120" height="30" as="geometry"/>
        </mxCell>
        <mxCell id="21" value="None" style="rounded=0;whiteSpace=wrap;html=1;strokeColor=#000000;strokeWidth=1;fillColor=#eef2f7;align=center;verticalAlign=middle;" vertex="1" parent="2">
          <mxGeometry x="460" y="190" width="120" height="30" as="geometry"/>
        </mxCell>
        <mxCell id="22" value="1" style="rounded=0;whiteSpace=wrap;html=1;strokeColor=#000000;strokeWidth=1;fillColor=#eef2f7;align=center;verticalAlign=middle;" vertex="1" parent="2">
          <mxGeometry x="580" y="190" width="60" height="30" as="geometry"/>
        </mxCell>
        <mxCell id="23" value="12345.67" style="rounded=0;whiteSpace=wrap;html=1;strokeColor=#000000;strokeWidth=1;fillColor=#eef2f7;align=center;verticalAlign=middle;" vertex="1" parent="2">
          <mxGeometry x="640" y="190" width="60" height="30" as="geometry"/>
        </mxCell>

      </root>
    </mxGraphModel>
  </diagram>
</mxfile>
